ffmpeg started on 2025-07-06 at 18:23:43
Report written to "D:\Convert\FFMetrics\reports\ssim_report-6.txt"
Log level: 32
Command line:
ffmpeg -hide_banner -nostdin -i "G:\\\xc0\xed\xe8\xec\xe5\\\xce\xed\xe3\xee\xe8\xed\xe3\xe8\\!_37_\xc7\xe8\xec\xe0_2025\\JamClub\\\xc3\xee\xeb\xf3\xe1\xe0\xff \xf8\xea\xe0\xf2\xf3\xeb\xea\xe0\\JamClub_Ao_no_Hako_24_1080p_HEVC.mkv" -i "G:\\\xc0\xed\xe8\xec\xe5\\\xce\xed\xe3\xee\xe8\xed\xe3\xe8\\!_37_\xc7\xe8\xec\xe0_2025\\JamClub\\\xc3\xee\xeb\xf3\xe1\xe0\xff \xf8\xea\xe0\xf2\xf3\xeb\xea\xe0\\JamClub_Ao_no_Hako_24_1080p.mp4" -lavfi "[0:v]settb=AVTB,setpts=PTS-STARTPTS,format=pix_fmts=yuv420p10,fps=24000/1001,scale=1920:1080:flags=bicubic[main];[1:v]settb=AVTB,setpts=PTS-STARTPTS,format=pix_fmts=yuv420p,fps=24000/1001,scale=1920:1080:flags=bicubic[ref];[main][ref]ssim=eof_action=endall:stats_file='D\\:/Convert/FFMetrics/logs/ssim_logfile-6.txt'" -f null -
Input #0, matroska,webm, from 'G:\Аниме\Онгоинги\!_37_Зима_2025\JamClub\Голубая шкатулка\JamClub_Ao_no_Hako_24_1080p_HEVC.mkv':
  Metadata:
    COMPATIBLE_BRANDS: isomiso2avc1mp41
    MAJOR_BRAND     : isom
    MINOR_VERSION   : 512
    ENCODER         : Lavf61.7.100
  Duration: 00:23:59.25, start: -0.001000, bitrate: 996 kb/s
  Stream #0:0: Video: hevc (Main 10), yuv420p10le(tv, bt709, progressive), 1920x1080 [SAR 1:1 DAR 16:9], 23.98 fps, 23.98 tbr, 1k tbn (default)
      Metadata:
        HANDLER_NAME    : VideoHandler
        VENDOR_ID       : [0][0][0][0]
        ENCODER         : Lavc61.19.100 libx265
        BPS             : 800083
        DURATION        : 00:23:59.187708333
        NUMBER_OF_FRAMES: 34506
        NUMBER_OF_BYTES : 143933732
        _STATISTICS_WRITING_APP: mkvpropedit v66.0.0 ('Josie') 64-bit
        _STATISTICS_WRITING_DATE_UTC: 2025-07-06 11:26:49
        _STATISTICS_TAGS: BPS DURATION NUMBER_OF_FRAMES NUMBER_OF_BYTES
  Stream #0:1(eng): Audio: aac (LC), 48000 Hz, stereo, fltp (default)
      Metadata:
        HANDLER_NAME    : SoundHandler
        VENDOR_ID       : [0][0][0][0]
        ENCODER         : Lavc61.19.100 aac
        BPS             : 192294
        DURATION        : 00:23:59.213000000
        NUMBER_OF_FRAMES: 67464
        NUMBER_OF_BYTES : 34594162
        _STATISTICS_WRITING_APP: mkvpropedit v66.0.0 ('Josie') 64-bit
        _STATISTICS_WRITING_DATE_UTC: 2025-07-06 11:26:49
        _STATISTICS_TAGS: BPS DURATION NUMBER_OF_FRAMES NUMBER_OF_BYTES
Input #1, mov,mp4,m4a,3gp,3g2,mj2, from 'G:\Аниме\Онгоинги\!_37_Зима_2025\JamClub\Голубая шкатулка\JamClub_Ao_no_Hako_24_1080p.mp4':
  Metadata:
    major_brand     : isom
    minor_version   : 512
    compatible_brands: isomiso2avc1mp41
    encoder         : Lavf60.16.100
  Duration: 00:23:59.23, start: 0.000000, bitrate: 4159 kb/s
  Stream #1:0[0x1](und): Video: h264 (High) (avc1 / 0x31637661), yuv420p(progressive), 1920x1080 [SAR 1:1 DAR 16:9], 3961 kb/s, 23.98 fps, 23.98 tbr, 90k tbn (default)
      Metadata:
        handler_name    : VideoHandler
        vendor_id       : [0][0][0][0]
  Stream #1:1[0x2](eng): Audio: aac (LC) (mp4a / 0x6134706D), 48000 Hz, stereo, fltp, 191 kb/s (default)
      Metadata:
        handler_name    : SoundHandler
        vendor_id       : [0][0][0][0]
Stream mapping:
  Stream #0:0 (hevc) -> settb:default
  Stream #1:0 (h264) -> settb:default
  ssim:default -> Stream #0:0 (wrapped_avframe)
  Stream #0:1 -> #0:1 (aac (native) -> pcm_s16le (native))
Output #0, null, to 'pipe:':
  Metadata:
    COMPATIBLE_BRANDS: isomiso2avc1mp41
    MAJOR_BRAND     : isom
    MINOR_VERSION   : 512
    encoder         : Lavf61.7.100
  Stream #0:0: Video: wrapped_avframe, yuv420p10le(tv, bt709, progressive), 1920x1080 [SAR 1:1 DAR 16:9], q=2-31, 200 kb/s, 23.98 fps, 23.98 tbn
      Metadata:
        encoder         : Lavc61.19.100 wrapped_avframe
  Stream #0:1(eng): Audio: pcm_s16le, 48000 Hz, stereo, s16, 1536 kb/s (default)
      Metadata:
        HANDLER_NAME    : SoundHandler
        VENDOR_ID       : [0][0][0][0]
        _STATISTICS_TAGS: BPS DURATION NUMBER_OF_FRAMES NUMBER_OF_BYTES
        BPS             : 192294
        DURATION        : 00:23:59.213000000
        NUMBER_OF_FRAMES: 67464
        NUMBER_OF_BYTES : 34594162
        _STATISTICS_WRITING_APP: mkvpropedit v66.0.0 ('Josie') 64-bit
        _STATISTICS_WRITING_DATE_UTC: 2025-07-06 11:26:49
        encoder         : Lavc61.19.100 pcm_s16le
frame=  104 fps=0.0 q=-0.0 size=N/A time=00:00:04.33 bitrate=N/A speed=8.65x    frame=  268 fps=261 q=-0.0 size=N/A time=00:00:11.17 bitrate=N/A speed=10.9x    frame=  449 fps=292 q=-0.0 size=N/A time=00:00:18.72 bitrate=N/A speed=12.2x    frame=  705 fps=344 q=-0.0 size=N/A time=00:00:29.40 bitrate=N/A speed=14.3x    frame=  959 fps=374 q=-0.0 size=N/A time=00:00:39.99 bitrate=N/A speed=15.6x    frame= 1217 fps=394 q=-0.0 size=N/A time=00:00:50.75 bitrate=N/A speed=16.4x    frame= 1466 fps=407 q=-0.0 size=N/A time=00:01:01.14 bitrate=N/A speed=  17x    frame= 1696 fps=412 q=-0.0 size=N/A time=00:01:10.73 bitrate=N/A speed=17.2x    frame= 1908 fps=411 q=-0.0 size=N/A time=00:01:19.57 bitrate=N/A speed=17.2x    frame= 2144 fps=416 q=-0.0 size=N/A time=00:01:29.42 bitrate=N/A speed=17.4x    frame= 2368 fps=418 q=-0.0 size=N/A time=00:01:38.76 bitrate=N/A speed=17.4x    frame= 2588 fps=419 q=-0.0 size=N/A time=00:01:47.94 bitrate=N/A speed=17.5x    frame= 2819 fps=421 q=-0.0 size=N/A time=00:01:57.57 bitrate=N/A speed=17.5x    frame= 3023 fps=419 q=-0.0 size=N/A time=00:02:06.08 bitrate=N/A speed=17.5x    frame= 3265 fps=423 q=-0.0 size=N/A time=00:02:16.17 bitrate=N/A speed=17.6x    frame= 3451 fps=419 q=-0.0 size=N/A time=00:02:23.93 bitrate=N/A speed=17.5x    frame= 3677 fps=420 q=-0.0 size=N/A time=00:02:33.36 bitrate=N/A speed=17.5x    frame= 3920 fps=423 q=-0.0 size=N/A time=00:02:43.49 bitrate=N/A speed=17.6x    frame= 4157 fps=425 q=-0.0 size=N/A time=00:02:53.38 bitrate=N/A speed=17.7x    frame= 4359 fps=423 q=-0.0 size=N/A time=00:03:01.80 bitrate=N/A speed=17.7x    frame= 4590 fps=424 q=-0.0 size=N/A time=00:03:11.44 bitrate=N/A speed=17.7x    frame= 4836 fps=427 q=-0.0 size=N/A time=00:03:21.70 bitrate=N/A speed=17.8x    frame= 5097 fps=430 q=-0.0 size=N/A time=00:03:32.58 bitrate=N/A speed=17.9x    frame= 5365 fps=434 q=-0.0 size=N/A time=00:03:43.76 bitrate=N/A speed=18.1x    frame= 5610 fps=435 q=-0.0 size=N/A time=00:03:53.98 bitrate=N/A speed=18.2x    frame= 5843 fps=436 q=-0.0 size=N/A time=00:04:03.70 bitrate=N/A speed=18.2x    frame= 6093 fps=438 q=-0.0 size=N/A time=00:04:14.12 bitrate=N/A speed=18.3x    frame= 6328 fps=438 q=-0.0 size=N/A time=00:04:23.93 bitrate=N/A speed=18.3x    frame= 6573 fps=440 q=-0.0 size=N/A time=00:04:34.14 bitrate=N/A speed=18.3x    frame= 6834 fps=442 q=-0.0 size=N/A time=00:04:45.03 bitrate=N/A speed=18.4x    frame= 7070 fps=443 q=-0.0 size=N/A time=00:04:54.87 bitrate=N/A speed=18.5x    frame= 7313 fps=443 q=-0.0 size=N/A time=00:05:05.01 bitrate=N/A speed=18.5x    frame= 7559 fps=444 q=-0.0 size=N/A time=00:05:15.27 bitrate=N/A speed=18.5x    frame= 7809 fps=446 q=-0.0 size=N/A time=00:05:25.70 bitrate=N/A speed=18.6x    frame= 8060 fps=447 q=-0.0 size=N/A time=00:05:36.16 bitrate=N/A speed=18.6x    frame= 8323 fps=448 q=-0.0 size=N/A time=00:05:47.13 bitrate=N/A speed=18.7x    frame= 8591 fps=450 q=-0.0 size=N/A time=00:05:58.31 bitrate=N/A speed=18.8x    frame= 8799 fps=449 q=-0.0 size=N/A time=00:06:06.99 bitrate=N/A speed=18.7x    frame= 9048 fps=450 q=-0.0 size=N/A time=00:06:17.37 bitrate=N/A speed=18.8x    frame= 9310 fps=451 q=-0.0 size=N/A time=00:06:28.30 bitrate=N/A speed=18.8x    frame= 9574 fps=453 q=-0.0 size=N/A time=00:06:39.31 bitrate=N/A speed=18.9x    frame= 9816 fps=454 q=-0.0 size=N/A time=00:06:49.40 bitrate=N/A speed=18.9x    frame=10087 fps=455 q=-0.0 size=N/A time=00:07:00.71 bitrate=N/A speed=  19x    frame=10304 fps=454 q=-0.0 size=N/A time=00:07:09.76 bitrate=N/A speed=18.9x    frame=10507 fps=453 q=-0.0 size=N/A time=00:07:18.22 bitrate=N/A speed=18.9x    frame=10740 fps=453 q=-0.0 size=N/A time=00:07:27.94 bitrate=N/A speed=18.9x    frame=10992 fps=454 q=-0.0 size=N/A time=00:07:38.45 bitrate=N/A speed=18.9x    frame=11255 fps=455 q=-0.0 size=N/A time=00:07:49.42 bitrate=N/A speed=  19x    frame=11505 fps=456 q=-0.0 size=N/A time=00:07:59.85 bitrate=N/A speed=  19x    frame=11747 fps=456 q=-0.0 size=N/A time=00:08:09.94 bitrate=N/A speed=  19x    frame=12012 fps=457 q=-0.0 size=N/A time=00:08:21.00 bitrate=N/A speed=19.1x    frame=12269 fps=458 q=-0.0 size=N/A time=00:08:31.71 bitrate=N/A speed=19.1x    frame=12530 fps=459 q=-0.0 size=N/A time=00:08:42.60 bitrate=N/A speed=19.1x    frame=12788 fps=459 q=-0.0 size=N/A time=00:08:53.36 bitrate=N/A speed=19.2x    frame=13026 fps=459 q=-0.0 size=N/A time=00:09:03.29 bitrate=N/A speed=19.2x    frame=13260 fps=459 q=-0.0 size=N/A time=00:09:13.05 bitrate=N/A speed=19.2x    frame=13507 fps=460 q=-0.0 size=N/A time=00:09:23.35 bitrate=N/A speed=19.2x    frame=13764 fps=460 q=-0.0 size=N/A time=00:09:34.07 bitrate=N/A speed=19.2x    frame=14007 fps=461 q=-0.0 size=N/A time=00:09:44.20 bitrate=N/A speed=19.2x    frame=14216 fps=460 q=-0.0 size=N/A time=00:09:52.92 bitrate=N/A speed=19.2x    frame=14451 fps=460 q=-0.0 size=N/A time=00:10:02.72 bitrate=N/A speed=19.2x    frame=14707 fps=460 q=-0.0 size=N/A time=00:10:13.40 bitrate=N/A speed=19.2x    frame=14910 fps=459 q=-0.0 size=N/A time=00:10:21.87 bitrate=N/A speed=19.1x    frame=15145 fps=459 q=-0.0 size=N/A time=00:10:31.67 bitrate=N/A speed=19.1x    frame=15369 fps=459 q=-0.0 size=N/A time=00:10:41.01 bitrate=N/A speed=19.1x    frame=15627 fps=459 q=-0.0 size=N/A time=00:10:51.77 bitrate=N/A speed=19.2x    frame=15868 fps=459 q=-0.0 size=N/A time=00:11:01.82 bitrate=N/A speed=19.2x    frame=16088 fps=459 q=-0.0 size=N/A time=00:11:11.00 bitrate=N/A speed=19.1x    frame=16320 fps=459 q=-0.0 size=N/A time=00:11:20.68 bitrate=N/A speed=19.1x    frame=16568 fps=459 q=-0.0 size=N/A time=00:11:31.02 bitrate=N/A speed=19.1x    frame=16818 fps=459 q=-0.0 size=N/A time=00:11:41.45 bitrate=N/A speed=19.2x    frame=17075 fps=460 q=-0.0 size=N/A time=00:11:52.16 bitrate=N/A speed=19.2x    frame=17338 fps=461 q=-0.0 size=N/A time=00:12:03.13 bitrate=N/A speed=19.2x    frame=17600 fps=461 q=-0.0 size=N/A time=00:12:14.06 bitrate=N/A speed=19.2x    frame=17860 fps=462 q=-0.0 size=N/A time=00:12:24.91 bitrate=N/A speed=19.3x    frame=18120 fps=463 q=-0.0 size=N/A time=00:12:35.75 bitrate=N/A speed=19.3x    frame=18381 fps=463 q=-0.0 size=N/A time=00:12:46.68 bitrate=N/A speed=19.3x    frame=18650 fps=464 q=-0.0 size=N/A time=00:12:57.86 bitrate=N/A speed=19.3x    frame=18910 fps=464 q=-0.0 size=N/A time=00:13:08.70 bitrate=N/A speed=19.4x    frame=19163 fps=465 q=-0.0 size=N/A time=00:13:19.25 bitrate=N/A speed=19.4x    frame=19430 fps=465 q=-0.0 size=N/A time=00:13:30.39 bitrate=N/A speed=19.4x    frame=19688 fps=466 q=-0.0 size=N/A time=00:13:41.15 bitrate=N/A speed=19.4x    frame=19939 fps=466 q=-0.0 size=N/A time=00:13:51.62 bitrate=N/A speed=19.4x    frame=20187 fps=466 q=-0.0 size=N/A time=00:14:01.96 bitrate=N/A speed=19.4x    frame=20452 fps=467 q=-0.0 size=N/A time=00:14:13.01 bitrate=N/A speed=19.5x    frame=20717 fps=467 q=-0.0 size=N/A time=00:14:24.07 bitrate=N/A speed=19.5x    frame=20971 fps=468 q=-0.0 size=N/A time=00:14:34.66 bitrate=N/A speed=19.5x    frame=21244 fps=468 q=-0.0 size=N/A time=00:14:46.05 bitrate=N/A speed=19.5x    frame=21521 fps=469 q=-0.0 size=N/A time=00:14:57.60 bitrate=N/A speed=19.6x    frame=21780 fps=469 q=-0.0 size=N/A time=00:15:08.40 bitrate=N/A speed=19.6x    frame=22033 fps=470 q=-0.0 size=N/A time=00:15:18.95 bitrate=N/A speed=19.6x    frame=22286 fps=470 q=-0.0 size=N/A time=00:15:29.51 bitrate=N/A speed=19.6x    frame=22557 fps=470 q=-0.0 size=N/A time=00:15:40.81 bitrate=N/A speed=19.6x    frame=22825 fps=471 q=-0.0 size=N/A time=00:15:51.99 bitrate=N/A speed=19.6x    frame=23081 fps=471 q=-0.0 size=N/A time=00:16:02.67 bitrate=N/A speed=19.7x    frame=23343 fps=472 q=-0.0 size=N/A time=00:16:13.59 bitrate=N/A speed=19.7x    frame=23598 fps=472 q=-0.0 size=N/A time=00:16:24.23 bitrate=N/A speed=19.7x    frame=23855 fps=472 q=-0.0 size=N/A time=00:16:34.95 bitrate=N/A speed=19.7x    frame=24119 fps=473 q=-0.0 size=N/A time=00:16:45.96 bitrate=N/A speed=19.7x    frame=24395 fps=473 q=-0.0 size=N/A time=00:16:57.47 bitrate=N/A speed=19.7x    frame=24641 fps=473 q=-0.0 size=N/A time=00:17:07.73 bitrate=N/A speed=19.7x    frame=24901 fps=474 q=-0.0 size=N/A time=00:17:18.57 bitrate=N/A speed=19.8x    frame=25163 fps=474 q=-0.0 size=N/A time=00:17:29.50 bitrate=N/A speed=19.8x    frame=25416 fps=474 q=-0.0 size=N/A time=00:17:40.05 bitrate=N/A speed=19.8x    frame=25675 fps=474 q=-0.0 size=N/A time=00:17:50.86 bitrate=N/A speed=19.8x    frame=25932 fps=475 q=-0.0 size=N/A time=00:18:01.58 bitrate=N/A speed=19.8x    frame=26196 fps=475 q=-0.0 size=N/A time=00:18:12.59 bitrate=N/A speed=19.8x    frame=26439 fps=475 q=-0.0 size=N/A time=00:18:22.72 bitrate=N/A speed=19.8x    frame=26632 fps=474 q=-0.0 size=N/A time=00:18:30.77 bitrate=N/A speed=19.8x    frame=26882 fps=474 q=-0.0 size=N/A time=00:18:41.20 bitrate=N/A speed=19.8x    frame=27148 fps=474 q=-0.0 size=N/A time=00:18:52.29 bitrate=N/A speed=19.8x    frame=27375 fps=474 q=-0.0 size=N/A time=00:19:01.76 bitrate=N/A speed=19.8x    frame=27626 fps=474 q=-0.0 size=N/A time=00:19:12.23 bitrate=N/A speed=19.8x    frame=27875 fps=474 q=-0.0 size=N/A time=00:19:22.61 bitrate=N/A speed=19.8x    frame=28133 fps=474 q=-0.0 size=N/A time=00:19:33.38 bitrate=N/A speed=19.8x    frame=28392 fps=475 q=-0.0 size=N/A time=00:19:44.18 bitrate=N/A speed=19.8x    frame=28650 fps=475 q=-0.0 size=N/A time=00:19:54.94 bitrate=N/A speed=19.8x    frame=28916 fps=475 q=-0.0 size=N/A time=00:20:06.03 bitrate=N/A speed=19.8x    frame=29171 fps=475 q=-0.0 size=N/A time=00:20:16.67 bitrate=N/A speed=19.8x    frame=29422 fps=476 q=-0.0 size=N/A time=00:20:27.14 bitrate=N/A speed=19.8x    frame=29670 fps=476 q=-0.0 size=N/A time=00:20:37.48 bitrate=N/A speed=19.8x    frame=29920 fps=476 q=-0.0 size=N/A time=00:20:47.91 bitrate=N/A speed=19.8x    frame=30189 fps=476 q=-0.0 size=N/A time=00:20:59.13 bitrate=N/A speed=19.9x    frame=30447 fps=476 q=-0.0 size=N/A time=00:21:09.89 bitrate=N/A speed=19.9x    frame=30703 fps=476 q=-0.0 size=N/A time=00:21:20.57 bitrate=N/A speed=19.9x    frame=30966 fps=477 q=-0.0 size=N/A time=00:21:31.54 bitrate=N/A speed=19.9x    frame=31217 fps=477 q=-0.0 size=N/A time=00:21:42.00 bitrate=N/A speed=19.9x    frame=31462 fps=477 q=-0.0 size=N/A time=00:21:52.22 bitrate=N/A speed=19.9x    frame=31694 fps=477 q=-0.0 size=N/A time=00:22:01.90 bitrate=N/A speed=19.9x    frame=31944 fps=477 q=-0.0 size=N/A time=00:22:12.33 bitrate=N/A speed=19.9x    frame=32183 fps=477 q=-0.0 size=N/A time=00:22:22.29 bitrate=N/A speed=19.9x    frame=32444 fps=477 q=-0.0 size=N/A time=00:22:33.18 bitrate=N/A speed=19.9x    frame=32677 fps=476 q=-0.0 size=N/A time=00:22:42.90 bitrate=N/A speed=19.9x    frame=32889 fps=476 q=-0.0 size=N/A time=00:22:51.74 bitrate=N/A speed=19.9x    frame=33090 fps=475 q=-0.0 size=N/A time=00:23:00.12 bitrate=N/A speed=19.8x    frame=33277 fps=475 q=-0.0 size=N/A time=00:23:07.92 bitrate=N/A speed=19.8x    frame=33508 fps=474 q=-0.0 size=N/A time=00:23:17.56 bitrate=N/A speed=19.8x    frame=33716 fps=474 q=-0.0 size=N/A time=00:23:26.23 bitrate=N/A speed=19.8x    frame=33894 fps=473 q=-0.0 size=N/A time=00:23:33.66 bitrate=N/A speed=19.7x    frame=34100 fps=472 q=-0.0 size=N/A time=00:23:42.25 bitrate=N/A speed=19.7x    frame=34349 fps=472 q=-0.0 size=N/A time=00:23:52.63 bitrate=N/A speed=19.7x    [Parsed_ssim_10 @ 0000023a261b1180] SSIM Y:0.994296 (22.438151) U:0.993900 (22.146400) V:0.993838 (22.103072) All:0.994154 (22.331127)
[out#0/null @ 0000023a1f63c040] video:14827KiB audio:269856KiB subtitle:0KiB other streams:0KiB global headers:0KiB muxing overhead: unknown
frame=34506 fps=473 q=-0.0 Lsize=N/A time=00:23:59.18 bitrate=N/A speed=19.7x    
